<svg width="356" height="113" viewBox="0 0 356 113" fill="none" xmlns="http://www.w3.org/2000/svg">
<path d="M97.0795 33.9788C98.3163 34.0246 99.37 34.4827 100.24 35.3531C101.111 36.1777 101.569 37.2084 101.615 38.4453V57.2209C101.34 59.9695 99.8281 61.4583 97.0795 61.6874C95.7968 61.6874 94.6744 61.2751 93.7124 60.4505C92.7962 59.5801 92.3381 58.5035 92.3381 57.2209V38.4453C92.3839 37.1626 92.8649 36.109 93.7811 35.2844C94.6973 34.414 95.7968 33.9788 97.0795 33.9788Z" fill="#0E0E10"/>
<path d="M124.464 19.2212C125.747 19.2212 126.846 19.6564 127.762 20.5268C128.678 21.3514 129.16 22.405 129.205 23.6877V29.6659H152.569C153.851 29.6659 154.951 30.1011 155.867 30.9715C156.737 31.8877 157.173 32.9872 157.173 34.2699C157.173 35.5526 156.714 36.652 155.798 37.5682C154.928 38.4386 153.851 38.8738 152.569 38.8738H129.205V40.2481C129.16 42.1264 129.274 43.8671 129.549 45.4705C129.87 47.0281 130.603 48.4253 131.748 49.6622C132.893 50.899 134.336 51.5633 136.077 51.6549H152.843C154.126 51.7007 155.18 52.1817 156.004 53.0979C156.875 54.0141 157.31 55.1136 157.31 56.3963C157.264 57.6331 156.806 58.6868 155.936 59.5572C155.111 60.3818 154.08 60.817 152.843 60.8628H133.741C130.534 60.6795 127.877 59.603 125.77 57.6331C123.708 55.6175 122.219 53.1666 121.303 50.2806C120.433 47.3945 119.975 44.3252 119.929 41.0727V38.8738V29.6659V23.6877C119.975 22.4508 120.433 21.4201 121.303 20.5955C122.173 19.7251 123.227 19.267 124.464 19.2212Z" fill="#0E0E10"/>
<path d="M343.179 57.2209V40.6604C343.179 39.5152 342.583 38.9196 341.392 38.8738H317.342C316.472 38.9196 315.716 39.309 315.074 40.042C314.433 40.7291 313.952 41.5537 313.631 42.5157C313.356 43.4319 313.219 44.3711 313.219 45.3331C313.219 46.2493 313.356 47.1884 313.631 48.1504C313.952 49.0666 314.433 49.8912 315.074 50.6242C315.716 51.3113 316.472 51.6549 317.342 51.6549H334.933C336.216 51.6549 337.292 52.113 338.163 53.0292C339.079 53.8996 339.537 54.9762 339.537 56.2588C339.537 57.5415 339.079 58.6181 338.163 59.4885C337.292 60.4047 336.216 60.8628 334.933 60.8628H317.617C314.41 60.817 311.753 59.9237 309.646 58.1829C307.584 56.3963 306.096 54.4035 305.179 52.2046C304.309 49.9599 303.874 47.6465 303.874 45.2644C303.874 42.9738 304.332 40.7291 305.248 38.5302C306.164 36.2855 307.653 34.2928 309.715 32.552C311.776 30.7654 314.822 29.8034 318.854 29.6659H347.714C348.997 29.6659 350.096 30.1011 351.013 30.9715C351.929 31.7961 352.41 32.8498 352.456 34.1325V57.2209C352.456 58.5035 351.975 59.5801 351.013 60.4505C350.096 61.2751 348.997 61.6874 347.714 61.6874C344.966 61.4583 343.454 59.9695 343.179 57.2209Z" fill="#0E0E10"/>
<path d="M214.873 57.2209V40.6604C214.873 39.5152 214.278 38.9196 213.087 38.8738H189.036C188.166 38.9196 187.41 39.309 186.769 40.042C186.127 40.7291 185.646 41.5537 185.326 42.5157C185.051 43.4319 184.913 44.3711 184.913 45.3331C184.913 46.2493 185.051 47.1884 185.326 48.1504C185.646 49.0666 186.127 49.8912 186.769 50.6242C187.41 51.3113 188.166 51.6549 189.036 51.6549H206.628C207.91 51.6549 208.987 52.113 209.857 53.0292C210.773 53.8996 211.231 54.9762 211.231 56.2588C211.231 57.5415 210.773 58.6181 209.857 59.4885C208.987 60.4047 207.91 60.8628 206.628 60.8628H189.311C186.104 60.817 183.447 59.9237 181.34 58.1829C179.279 56.3963 177.79 54.4035 176.874 52.2046C176.003 49.9599 175.568 47.6465 175.568 45.2644C175.568 42.9738 176.026 40.7291 176.942 38.5302C177.859 36.2855 179.347 34.2928 181.409 32.552C183.47 30.7654 186.517 29.8034 190.548 29.6659H219.409C220.691 29.6659 221.791 30.1011 222.707 30.9715C223.623 31.7961 224.104 32.8498 224.15 34.1325V57.2209C224.15 58.5035 223.669 59.5801 222.707 60.4505C221.791 61.2751 220.691 61.6874 219.409 61.6874C216.66 61.4583 215.148 59.9695 214.873 57.2209Z" fill="#0E0E10"/>
<path d="M257.518 60.8628C253.487 60.7253 250.441 59.7862 248.379 58.0454C246.318 56.2588 244.829 54.2661 243.913 52.0672C242.996 49.8225 242.538 47.5549 242.538 45.2644C242.538 42.8822 242.973 40.5917 243.844 38.3928C244.76 36.1481 246.249 34.1554 248.31 32.4146C250.418 30.628 253.075 29.7118 256.281 29.6659H282.393C283.676 29.6659 284.752 30.124 285.623 31.0403C286.539 31.9107 286.997 32.9872 286.997 34.2699C286.997 35.5526 286.539 36.652 285.623 37.5682C284.752 38.4386 283.676 38.8738 282.393 38.8738H256.006C255.136 38.8738 254.38 39.2403 253.739 39.9733C253.098 40.6604 252.617 41.485 252.296 42.447C252.021 43.3632 251.884 44.2794 251.884 45.1956C251.884 46.1577 252.021 47.1197 252.296 48.0817C252.617 48.9979 253.098 49.8225 253.739 50.5555C254.38 51.2426 255.136 51.6091 256.006 51.6549H282.393C283.676 51.6549 284.752 52.113 285.623 53.0292C286.539 53.8996 286.997 54.9762 286.997 56.2588C286.997 57.5415 286.539 58.6181 285.623 59.4885C284.752 60.4047 283.676 60.8628 282.393 60.8628H257.518Z" fill="#0E0E10"/>
<path d="M91.3507 24.1329C91.3507 22.8503 91.9004 21.7508 92.9999 20.8346C94.0993 19.9184 95.4278 19.4603 96.9854 19.4603C98.5429 19.4603 99.8714 19.9184 100.971 20.8346C102.07 21.7508 102.62 22.8503 102.62 24.1329C102.62 25.4614 102.07 26.5838 100.971 27.5C99.8714 28.4162 98.5429 28.8743 96.9854 28.8743C95.4278 28.8743 94.0993 28.4162 92.9999 27.5C91.9004 26.5838 91.3507 25.4614 91.3507 24.1329Z" fill="#FA4402"/>
<path d="M91.9682 102V71.2979H101.968C103.591 71.2979 105.06 71.6927 106.376 72.4822C107.692 73.257 108.73 74.317 109.49 75.662C110.265 77.0071 110.653 78.5129 110.653 80.1796C110.653 81.7293 110.324 83.1255 109.666 84.3682C109.023 85.6109 108.145 86.6343 107.034 87.4384C105.923 88.2279 104.68 88.725 103.306 88.9297L110.85 102H108.109L100.609 89.0832H94.3367V102H91.9682ZM94.3367 86.7148H101.815C102.999 86.7148 104.081 86.4297 105.06 85.8595C106.04 85.2747 106.822 84.4852 107.407 83.491C107.992 82.4969 108.284 81.3638 108.284 80.0919C108.284 78.8346 107.992 77.7088 107.407 76.7147C106.822 75.7059 106.04 74.9164 105.06 74.3462C104.081 73.7614 102.999 73.469 101.815 73.469H94.3367V86.7148ZM138.028 102.57C135.952 102.57 134 102.161 132.173 101.342C130.345 100.509 128.737 99.3611 127.348 97.8991C125.959 96.4371 124.87 94.7485 124.081 92.8332C123.291 90.9034 122.896 88.842 122.896 86.649C122.896 84.456 123.291 82.4018 124.081 80.4866C124.87 78.5568 125.959 76.8609 127.348 75.3989C128.737 73.9368 130.345 72.7965 132.173 71.9778C134 71.1444 135.952 70.7277 138.028 70.7277C140.119 70.7277 142.078 71.1444 143.905 71.9778C145.733 72.7965 147.341 73.9368 148.73 75.3989C150.119 76.8609 151.201 78.5568 151.976 80.4866C152.765 82.4018 153.16 84.456 153.16 86.649C153.16 88.842 152.765 90.9034 151.976 92.8332C151.201 94.7485 150.119 96.4371 148.73 97.8991C147.341 99.3611 145.733 100.509 143.905 101.342C142.078 102.161 140.119 102.57 138.028 102.57ZM138.028 100.202C139.812 100.202 141.471 99.8435 143.006 99.1272C144.556 98.4108 145.908 97.4312 147.063 96.1885C148.233 94.9312 149.147 93.4838 149.805 91.8464C150.463 90.2089 150.791 88.4765 150.791 86.649C150.791 84.7922 150.455 83.0451 149.783 81.4077C149.125 79.7702 148.211 78.3302 147.041 77.0875C145.872 75.8448 144.519 74.8725 142.984 74.1708C141.449 73.4544 139.797 73.0962 138.028 73.0962C136.245 73.0962 134.578 73.4544 133.028 74.1708C131.493 74.8871 130.141 75.874 128.971 77.1313C127.816 78.374 126.91 79.8141 126.252 81.4515C125.594 83.089 125.265 84.8215 125.265 86.649C125.265 88.5057 125.594 90.2528 126.252 91.8902C126.924 93.5277 127.845 94.9751 129.015 96.2324C130.185 97.4751 131.537 98.4473 133.072 99.1491C134.622 99.8509 136.274 100.202 138.028 100.202ZM166.073 102V71.2979H176.183C177.645 71.2979 178.968 71.5976 180.152 72.1971C181.351 72.7819 182.301 73.6444 183.003 74.7848C183.719 75.9106 184.078 77.2995 184.078 78.9515C184.078 79.9457 183.895 80.8814 183.529 81.7586C183.164 82.6211 182.696 83.3521 182.126 83.9516C181.556 84.5364 180.971 84.8946 180.371 85.0261C181.263 85.2747 182.045 85.684 182.718 86.2542C183.39 86.8098 183.953 87.475 184.406 88.2499C184.86 89.0101 185.196 89.8215 185.415 90.6841C185.635 91.5467 185.744 92.4093 185.744 93.2718C185.744 95.0409 185.371 96.5833 184.626 97.8991C183.895 99.2003 182.915 100.209 181.687 100.925C180.459 101.642 179.092 102 177.586 102H166.073ZM168.441 99.8289H177.433C178.558 99.8289 179.582 99.5365 180.503 98.9517C181.424 98.3523 182.155 97.5409 182.696 96.5175C183.251 95.4795 183.529 94.3099 183.529 93.0087C183.529 91.8391 183.251 90.7426 182.696 89.7192C182.155 88.6958 181.424 87.8697 180.503 87.2411C179.582 86.5978 178.558 86.2762 177.433 86.2762H168.441V99.8289ZM168.441 84.127H176.029C177.594 84.127 178.931 83.6811 180.042 82.7893C181.154 81.8828 181.709 80.5963 181.709 78.9296C181.709 77.0728 181.154 75.6986 180.042 74.8067C178.931 73.9149 177.594 73.469 176.029 73.469H168.441V84.127ZM212.99 102.57C210.914 102.57 208.962 102.161 207.134 101.342C205.307 100.509 203.699 99.3611 202.31 97.8991C200.921 96.4371 199.832 94.7485 199.042 92.8332C198.253 90.9034 197.858 88.842 197.858 86.649C197.858 84.456 198.253 82.4018 199.042 80.4866C199.832 78.5568 200.921 76.8609 202.31 75.3989C203.699 73.9368 205.307 72.7965 207.134 71.9778C208.962 71.1444 210.914 70.7277 212.99 70.7277C215.08 70.7277 217.039 71.1444 218.867 71.9778C220.694 72.7965 222.303 73.9368 223.691 75.3989C225.08 76.8609 226.162 78.5568 226.937 80.4866C227.727 82.4018 228.121 84.456 228.121 86.649C228.121 88.842 227.727 90.9034 226.937 92.8332C226.162 94.7485 225.08 96.4371 223.691 97.8991C222.303 99.3611 220.694 100.509 218.867 101.342C217.039 102.161 215.08 102.57 212.99 102.57ZM212.99 100.202C214.773 100.202 216.433 99.8435 217.968 99.1272C219.517 98.4108 220.87 97.4312 222.025 96.1885C223.194 94.9312 224.108 93.4838 224.766 91.8464C225.424 90.2089 225.753 88.4765 225.753 86.649C225.753 84.7922 225.417 83.0451 224.744 81.4077C224.086 79.7702 223.172 78.3302 222.003 77.0875C220.833 75.8448 219.481 74.8725 217.946 74.1708C216.411 73.4544 214.759 73.0962 212.99 73.0962C211.206 73.0962 209.539 73.4544 207.99 74.1708C206.454 74.8871 205.102 75.874 203.932 77.1313C202.777 78.374 201.871 79.8141 201.213 81.4515C200.555 83.089 200.226 84.8215 200.226 86.649C200.226 88.5057 200.555 90.2528 201.213 91.8902C201.886 93.5277 202.807 94.9751 203.976 96.2324C205.146 97.4751 206.498 98.4473 208.033 99.1491C209.583 99.8509 211.235 100.202 212.99 100.202ZM262.288 71.2979V73.6664H251.411V102H249.042V73.6664H238.187V71.2979H262.288ZM275.682 102V71.2979H278.051V102H275.682ZM306.52 102.57C304.444 102.57 302.492 102.161 300.665 101.342C298.837 100.509 297.229 99.3684 295.84 97.921C294.466 96.459 293.384 94.7631 292.595 92.8332C291.82 90.9034 291.432 88.842 291.432 86.649C291.432 84.456 291.82 82.3945 292.595 80.4647C293.384 78.5348 294.466 76.8462 295.84 75.3989C297.229 73.9368 298.837 72.7965 300.665 71.9778C302.492 71.1444 304.444 70.7277 306.52 70.7277C309.006 70.7277 311.294 71.3052 313.384 72.4602C315.475 73.6152 317.207 75.1503 318.582 77.0655L316.498 78.2059C315.343 76.6416 313.874 75.3989 312.09 74.4778C310.321 73.5567 308.465 73.0962 306.52 73.0962C304.737 73.0962 303.077 73.4544 301.542 74.1708C300.007 74.8871 298.655 75.874 297.485 77.1313C296.33 78.374 295.424 79.8141 294.766 81.4515C294.122 83.089 293.801 84.8215 293.801 86.649C293.801 88.5203 294.13 90.2747 294.788 91.9122C295.446 93.535 296.359 94.9751 297.529 96.2324C298.698 97.4751 300.051 98.4473 301.586 99.1491C303.121 99.8509 304.766 100.202 306.52 100.202C308.552 100.202 310.438 99.7339 312.178 98.7982C313.933 97.8625 315.373 96.6418 316.498 95.1359L318.582 96.2543C317.207 98.1696 315.475 99.7047 313.384 100.86C311.294 102 309.006 102.57 306.52 102.57ZM342.375 102.57C340.752 102.57 339.181 102.322 337.66 101.825C336.14 101.313 334.809 100.596 333.669 99.6754C332.543 98.7397 331.754 97.6213 331.3 96.3201L333.515 95.4868C333.866 96.4809 334.502 97.3362 335.423 98.0526C336.359 98.7544 337.434 99.288 338.647 99.6535C339.875 100.019 341.118 100.202 342.375 100.202C343.866 100.202 345.263 99.9459 346.564 99.4342C347.865 98.9225 348.918 98.2134 349.722 97.307C350.526 96.3859 350.928 95.2967 350.928 94.0394C350.928 92.7821 350.511 91.7514 349.678 90.9473C348.844 90.1285 347.77 89.4853 346.454 89.0174C345.153 88.535 343.793 88.1621 342.375 87.899C340.299 87.5335 338.442 87.051 336.805 86.4516C335.167 85.8376 333.866 84.975 332.901 83.8638C331.951 82.7527 331.476 81.2615 331.476 79.3901C331.476 77.6503 331.98 76.1445 332.989 74.8725C334.012 73.6006 335.35 72.6137 337.002 71.912C338.654 71.2102 340.445 70.8593 342.375 70.8593C343.939 70.8593 345.475 71.1079 346.98 71.605C348.486 72.0874 349.817 72.7965 350.972 73.7322C352.127 74.6678 352.96 75.8082 353.472 77.1533L351.213 77.9647C350.862 76.9559 350.226 76.1006 349.305 75.3989C348.384 74.6971 347.309 74.1635 346.081 73.798C344.868 73.4325 343.632 73.2497 342.375 73.2497C340.869 73.2351 339.466 73.4909 338.165 74.0173C336.878 74.529 335.833 75.2453 335.029 76.1664C334.239 77.0875 333.844 78.162 333.844 79.3901C333.844 80.8083 334.217 81.9048 334.963 82.6796C335.708 83.4545 336.724 84.0393 338.011 84.434C339.298 84.8142 340.752 85.1577 342.375 85.4647C344.305 85.801 346.096 86.32 347.748 87.0218C349.415 87.7089 350.752 88.63 351.761 89.785C352.785 90.9253 353.296 92.3435 353.296 94.0394C353.296 95.7646 352.785 97.2704 351.761 98.557C350.752 99.8289 349.422 100.816 347.77 101.518C346.118 102.219 344.32 102.57 342.375 102.57Z" fill="#FA4402"/>
<path fill-rule="evenodd" clip-rule="evenodd" d="M20.8098 9.52788C20.7897 8.20702 20.4422 6.661 19.7535 5.11414C18.1712 1.56029 15.3871 -0.652192 13.535 0.172426C11.6829 0.997044 11.4641 4.5465 13.0464 8.10035C13.6254 9.40095 14.3655 10.5219 15.1619 11.3801C6.29052 14.9758 0.390554 21.0011 0.0185864 28.0987C-0.621933 40.3205 15.3718 51.0937 35.7415 52.1612C56.1112 53.2287 73.1434 44.1864 73.7839 31.9645C74.2179 23.6835 67.0154 16.0676 55.9893 11.6851C56.6038 10.8134 57.1606 9.6967 57.5715 8.43191C58.6522 5.10599 58.3155 2.01575 56.8194 1.52966C55.3234 1.04357 53.2346 3.34571 52.1539 6.67163C51.7535 7.90403 51.5477 9.10407 51.5233 10.1513C47.3827 8.93793 42.8424 8.15258 38.061 7.902C31.8821 7.57817 26.0102 8.18461 20.8098 9.52788ZM43.6666 36.3221C47.2734 36.0699 49.8875 31.436 49.5055 25.9721C49.1234 20.5082 45.8898 16.2832 42.2829 16.5354C38.6761 16.7877 36.062 21.4215 36.4441 26.8854C36.8261 32.3494 40.0598 36.5743 43.6666 36.3221ZM63.3577 26.7665C63.1684 30.3774 61.3755 33.2188 59.3532 33.1128C57.3308 33.0068 55.8448 29.9936 56.034 26.3827C56.2233 22.7718 58.0161 19.9305 60.0385 20.0365C62.0609 20.1424 63.5469 23.1556 63.3577 26.7665Z" fill="#FA4402"/>
<path d="M21.47 105.826C29.9689 107.478 39.1195 97.1865 41.9083 82.8392C44.6971 68.4918 40.0682 55.5218 31.5693 53.8698C23.0704 52.2177 13.9198 62.5093 11.131 76.8567C8.34214 91.204 12.9711 104.174 21.47 105.826Z" fill="#FA4402"/>
</svg>
