<svg width="234" height="337" viewBox="0 0 234 337" fill="none" xmlns="http://www.w3.org/2000/svg">
<path fill-rule="evenodd" clip-rule="evenodd" d="M65.98 30.2091C65.9162 26.0212 64.8144 21.1194 62.6308 16.215C57.614 4.94709 48.7866 -2.06785 42.9142 0.546698C37.0418 3.16125 36.3482 14.4152 41.365 25.6831C43.201 29.8068 45.5473 33.3609 48.0724 36.0818C19.9448 47.4825 1.2383 66.5864 0.0589305 89.0901C-1.97192 127.841 48.7381 161.999 113.323 165.383C177.908 168.768 231.91 140.098 233.941 101.347C235.317 75.0912 212.48 50.9438 177.521 37.0486C179.469 34.2848 181.235 30.7437 182.538 26.733C185.964 16.1878 184.897 6.38976 180.153 4.84856C175.41 3.30735 168.787 10.6066 165.361 21.1518C164.091 25.0598 163.438 28.8651 163.361 32.1857C150.233 28.3386 135.837 25.8486 120.677 25.0541C101.086 24.0273 82.4685 25.9501 65.98 30.2091ZM156.963 82.3483C158.175 99.6724 149.886 114.365 138.45 115.164C127.014 115.964 116.762 102.568 115.55 85.2442C114.339 67.9201 122.628 53.2279 134.063 52.4282C145.499 51.6286 155.752 65.0243 156.963 82.3483ZM188.187 104.988C194.599 105.324 200.284 96.3157 200.884 84.8668C201.484 73.4179 196.772 63.8643 190.36 63.5283C183.948 63.1922 178.263 72.201 177.663 83.6499C177.063 95.0987 181.775 104.652 188.187 104.988Z" fill="#FA4402"/>
<path d="M68.0732 335.534C95.02 340.772 124.033 308.141 132.875 262.651C141.718 217.161 127.041 176.038 100.094 170.8C73.1473 165.562 44.1344 198.193 35.2921 243.683C26.4497 289.173 41.1263 330.296 68.0732 335.534Z" fill="#FA4402"/>
<path d="M138.45 115.164C149.886 114.365 158.175 99.6724 156.963 82.3483C155.752 65.0243 145.499 51.6286 134.063 52.4282C122.628 53.2279 114.339 67.9201 115.55 85.2442C116.762 102.568 127.014 115.964 138.45 115.164Z" fill="white"/>
<path d="M200.884 84.8668C200.284 96.3157 194.599 105.324 188.187 104.988C181.775 104.652 177.063 95.0987 177.663 83.6499C178.263 72.201 183.948 63.1922 190.36 63.5283C196.772 63.8643 201.484 73.4179 200.884 84.8668Z" fill="white"/>
</svg>
